# Blender v2.74 (sub 0) OBJ File: 'starting_point.blend'
# www.blender.org
o Cube
v 3.098468 2.362034 2.524862
v 3.117837 3.077523 2.534485
v 3.942843 3.053427 2.532155
v 3.943004 3.034888 3.282934
v 3.115095 3.081236 3.275230
v 3.093240 2.362034 3.275947
v 3.966629 2.389029 3.323471
v 3.989488 2.362034 2.501033
vt 0.000000 0.000000
vn -0.997700 -0.067200 -0.001400
vn -0.000900 0.999500 -0.032800
vn -0.055600 -0.998100 -0.024600
vn 0.026700 -0.043200 0.998700
vn 0.999600 -0.027200 0.007000
vn 0.056100 -0.060500 -0.996600
vn -0.998900 -0.038200 -0.026500
vn -0.030900 0.999500 -0.000200
vn -0.029200 -0.999600 0.004900
vn 0.002400 -0.013500 0.999900
vn 0.999500 -0.030400 0.003900
vn 0.009200 -0.001300 -1.000000
s off
f 4/1/1 3/1/1 8/1/1
f 7/1/2 8/1/2 1/1/2
f 3/1/3 4/1/3 5/1/3
f 1/1/4 8/1/4 3/1/4
f 6/1/5 1/1/5 2/1/5
f 4/1/6 7/1/6 6/1/6
f 7/1/7 4/1/7 8/1/7
f 6/1/8 7/1/8 1/1/8
f 2/1/9 3/1/9 5/1/9
f 2/1/10 1/1/10 3/1/10
f 5/1/11 6/1/11 2/1/11
f 5/1/12 4/1/12 6/1/12
